# xmcd CD database file
#
# Track frame offsets:
#	150
#	22920
#	48357
#	61357
#	84900
#	102352
#	125272
#	143840
#	167570
#	188355
#	208220
#	233352
#	253405
#
# Disc length: 3560 seconds
#
# Revision: 0
# Processed by: cddbd v1.4PL0 Copyright (c) Steve Scherf et al.
# Submitted via: CDex 1.50Beta7
#
DISCID=a30de60d
DTITLE=S.E.N.S - Heaven's Song
DYEAR=1900
DGENRE=New Age
TTITLE0=Lonely Choice
TTITLE1=Emargency
TTITLE2=Grown-up way to do
TTITLE3=Requiem
TTITLE4=Wind of Tomorrow
TTITLE5=Like Wind
TTITLE6=Memories of wide sky
TTITLE7=Be as you were when we met
TTITLE8=Prism season
TTITLE9=Pale blue story
TTITLE10=In the shining season
TTITLE11=Flying
TTITLE12=Heaven's Song
EXTD=
EXTT0=
EXTT1=
EXTT2=
EXTT3=
EXTT4=
EXTT5=
EXTT6=
EXTT7=
EXTT8=
EXTT9=
EXTT10=
EXTT11=
EXTT12=
PLAYORDER=
